<svg xmlns="http://www.w3.org/2000/svg" width="61" height="60.333" viewBox="0 0 61 60.333">
  <g id="Group_14" data-name="Group 14" transform="translate(-35 -756)">
    <g id="Path_3" data-name="Path 3" transform="translate(35 756)" fill="#fff" opacity="0.73">
      <path d="M 29.66905212402344 23.06660652160645 L 0.25 11.82787799835205 L 0.25 0.3707974255084991 L 29.57291984558105 12.23175621032715 L 29.66415977478027 12.26866626739502 L 29.75606918334961 12.2334566116333 L 60.75 0.3634432852268219 L 60.75 11.82457637786865 L 29.66905212402344 23.06660652160645 Z" stroke="none"/>
      <path d="M 60.5 0.7269001007080078 L 29.84547996520996 12.46692657470703 L 29.66165924072266 12.53732681274414 L 29.47916984558105 12.46351623535156 L 0.5 0.7416019439697266 L 0.5 11.65576362609863 L 29.67141914367676 22.79989051818848 L 60.5 11.64914226531982 L 60.5 0.7269001007080078 M 0 -3.814697265625e-06 L 29.66666030883789 11.99999618530273 L 61 -3.814697265625e-06 L 61 11.99999618530273 L 29.66666030883789 23.33331680297852 L 0 11.99999618530273 L 0 -3.814697265625e-06 Z" stroke="none" fill="#fff"/>
    </g>
    <g id="Path_4" data-name="Path 4" transform="translate(35 774)" fill="#fff" opacity="0.83">
      <path d="M 29.66905212402344 23.06660652160645 L 0.25 11.82787799835205 L 0.25 0.3707974255084991 L 29.57291984558105 12.23175621032715 L 29.66415977478027 12.26866626739502 L 29.75606918334961 12.2334566116333 L 60.75 0.3634432852268219 L 60.75 11.82457637786865 L 29.66905212402344 23.06660652160645 Z" stroke="none"/>
      <path d="M 60.5 0.7269001007080078 L 29.84547996520996 12.46692657470703 L 29.66165924072266 12.53732681274414 L 29.47916984558105 12.46351623535156 L 0.5 0.7416019439697266 L 0.5 11.65576362609863 L 29.67141914367676 22.79989051818848 L 60.5 11.64914226531982 L 60.5 0.7269001007080078 M 0 -3.814697265625e-06 L 29.66666030883789 11.99999618530273 L 61 -3.814697265625e-06 L 61 11.99999618530273 L 29.66666030883789 23.33331680297852 L 0 11.99999618530273 L 0 -3.814697265625e-06 Z" stroke="none" fill="#fff"/>
    </g>
    <g id="Path_5" data-name="Path 5" transform="translate(35 793)" fill="#fff">
      <path d="M 29.66905212402344 23.06660652160645 L 0.25 11.82787799835205 L 0.25 0.3707974255084991 L 29.57291984558105 12.23175621032715 L 29.66415977478027 12.26866626739502 L 29.75606918334961 12.2334566116333 L 60.75 0.3634432852268219 L 60.75 11.82457637786865 L 29.66905212402344 23.06660652160645 Z" stroke="none"/>
      <path d="M 60.5 0.7269001007080078 L 29.84547996520996 12.46692657470703 L 29.66165924072266 12.53732681274414 L 29.47916984558105 12.46351623535156 L 0.5 0.7416019439697266 L 0.5 11.65576362609863 L 29.67141914367676 22.79989051818848 L 60.5 11.64914226531982 L 60.5 0.7269001007080078 M 0 -3.814697265625e-06 L 29.66666030883789 11.99999618530273 L 61 -3.814697265625e-06 L 61 11.99999618530273 L 29.66666030883789 23.33331680297852 L 0 11.99999618530273 L 0 -3.814697265625e-06 Z" stroke="none" fill="#fff"/>
    </g>
  </g>
</svg>
