<svg xmlns="http://www.w3.org/2000/svg" width="399" height="231" viewBox="0 0 399 231">
  <g id="Group_21" data-name="Group 21" transform="translate(-1214 -92.697)">
    <ellipse id="Ellipse_11" data-name="Ellipse 11" cx="12" cy="14.5" rx="12" ry="14.5" transform="translate(1381 92.697)" fill="#c1c1c1"/>
    <ellipse id="Ellipse_12" data-name="Ellipse 12" cx="11.5" cy="14.5" rx="11.5" ry="14.5" transform="translate(1423 92.697)" fill="#c1c1c1"/>
    <ellipse id="Ellipse_13" data-name="Ellipse 13" cx="12" cy="14.5" rx="12" ry="14.5" transform="translate(1464 92.697)" fill="#c1c1c1"/>
    <ellipse id="Ellipse_14" data-name="Ellipse 14" cx="11.5" cy="14.5" rx="11.5" ry="14.5" transform="translate(1506 92.697)" fill="#c1c1c1"/>
    <ellipse id="Ellipse_15" data-name="Ellipse 15" cx="12.5" cy="14.5" rx="12.5" ry="14.5" transform="translate(1547 92.697)" fill="#c1c1c1"/>
    <ellipse id="Ellipse_16" data-name="Ellipse 16" cx="12" cy="14.5" rx="12" ry="14.5" transform="translate(1589 92.697)" fill="#c1c1c1"/>
    <ellipse id="Ellipse_17" data-name="Ellipse 17" cx="12" cy="14.5" rx="12" ry="14.5" transform="translate(1339 143.697)" fill="#c1c1c1"/>
    <ellipse id="Ellipse_18" data-name="Ellipse 18" cx="12" cy="14.5" rx="12" ry="14.5" transform="translate(1381 143.697)" fill="#c1c1c1"/>
    <ellipse id="Ellipse_19" data-name="Ellipse 19" cx="11.5" cy="14.5" rx="11.5" ry="14.5" transform="translate(1423 143.697)" fill="#c1c1c1"/>
    <ellipse id="Ellipse_20" data-name="Ellipse 20" cx="12" cy="14.5" rx="12" ry="14.5" transform="translate(1464 143.697)" fill="#c1c1c1"/>
    <ellipse id="Ellipse_21" data-name="Ellipse 21" cx="11.5" cy="14.5" rx="11.5" ry="14.5" transform="translate(1506 143.697)" fill="#c1c1c1"/>
    <ellipse id="Ellipse_22" data-name="Ellipse 22" cx="12.5" cy="14.5" rx="12.5" ry="14.5" transform="translate(1547 143.697)" fill="#c1c1c1"/>
    <ellipse id="Ellipse_23" data-name="Ellipse 23" cx="12.5" cy="14.5" rx="12.5" ry="14.5" transform="translate(1297 193.697)" fill="#c1c1c1"/>
    <ellipse id="Ellipse_24" data-name="Ellipse 24" cx="12" cy="14.5" rx="12" ry="14.5" transform="translate(1339 193.697)" fill="#c1c1c1"/>
    <ellipse id="Ellipse_25" data-name="Ellipse 25" cx="12" cy="14.5" rx="12" ry="14.5" transform="translate(1381 193.697)" fill="#c1c1c1"/>
    <ellipse id="Ellipse_26" data-name="Ellipse 26" cx="11.5" cy="14.5" rx="11.5" ry="14.5" transform="translate(1423 193.697)" fill="#c1c1c1"/>
    <ellipse id="Ellipse_27" data-name="Ellipse 27" cx="12" cy="14.5" rx="12" ry="14.5" transform="translate(1464 193.697)" fill="#c1c1c1"/>
    <ellipse id="Ellipse_28" data-name="Ellipse 28" cx="11.5" cy="14.5" rx="11.5" ry="14.5" transform="translate(1506 193.697)" fill="#c1c1c1"/>
    <ellipse id="Ellipse_29" data-name="Ellipse 29" cx="12" cy="14.5" rx="12" ry="14.5" transform="translate(1256 244.697)" fill="#c1c1c1"/>
    <ellipse id="Ellipse_30" data-name="Ellipse 30" cx="12.5" cy="14.5" rx="12.5" ry="14.5" transform="translate(1297 244.697)" fill="#c1c1c1"/>
    <ellipse id="Ellipse_31" data-name="Ellipse 31" cx="12" cy="14.5" rx="12" ry="14.5" transform="translate(1339 244.697)" fill="#c1c1c1"/>
    <ellipse id="Ellipse_32" data-name="Ellipse 32" cx="12" cy="14.5" rx="12" ry="14.5" transform="translate(1381 244.697)" fill="#c1c1c1"/>
    <ellipse id="Ellipse_33" data-name="Ellipse 33" cx="11.5" cy="14.5" rx="11.5" ry="14.5" transform="translate(1423 244.697)" fill="#c1c1c1"/>
    <ellipse id="Ellipse_34" data-name="Ellipse 34" cx="12" cy="14.5" rx="12" ry="14.5" transform="translate(1464 244.697)" fill="#c1c1c1"/>
    <ellipse id="Ellipse_35" data-name="Ellipse 35" cx="12" cy="15" rx="12" ry="15" transform="translate(1214 293.697)" fill="#c1c1c1"/>
    <ellipse id="Ellipse_36" data-name="Ellipse 36" cx="12" cy="15" rx="12" ry="15" transform="translate(1256 293.697)" fill="#c1c1c1"/>
    <ellipse id="Ellipse_37" data-name="Ellipse 37" cx="12.5" cy="15" rx="12.5" ry="15" transform="translate(1297 293.697)" fill="#c1c1c1"/>
    <ellipse id="Ellipse_38" data-name="Ellipse 38" cx="12" cy="15" rx="12" ry="15" transform="translate(1339 293.697)" fill="#c1c1c1"/>
    <ellipse id="Ellipse_39" data-name="Ellipse 39" cx="12" cy="15" rx="12" ry="15" transform="translate(1381 293.697)" fill="#c1c1c1"/>
    <ellipse id="Ellipse_40" data-name="Ellipse 40" cx="11.5" cy="15" rx="11.5" ry="15" transform="translate(1423 293.697)" fill="#c1c1c1"/>
  </g>
</svg>
