<svg xmlns="http://www.w3.org/2000/svg" width="60.501" height="60.501" viewBox="0 0 60.501 60.501">
  <path id="Icon_awesome-python" data-name="Icon awesome-python" d="M59.392,25c-1.04-4.173-3.011-7.319-7.211-7.319H46.765v6.4a9.262,9.262,0,0,1-9.021,9.156H23.322a7.359,7.359,0,0,0-7.211,7.333V54.322c0,3.916,3.4,6.212,7.211,7.333a24.267,24.267,0,0,0,14.423,0c3.633-1.053,7.211-3.173,7.211-7.333v-5.5H30.547V46.99H52.18c4.2,0,5.753-2.93,7.211-7.319,1.512-4.524,1.445-8.872,0-14.666ZM38.649,52.486a2.748,2.748,0,1,1-2.714,2.741A2.729,2.729,0,0,1,38.649,52.486ZM22.66,31.433H37.083A7.271,7.271,0,0,0,44.294,24.1V10.339c0-3.916-3.3-6.847-7.211-7.508a44.514,44.514,0,0,0-14.423.014c-6.1,1.08-7.211,3.336-7.211,7.508v5.5H29.885v1.837H10.034A9.015,9.015,0,0,0,1.013,25a27.047,27.047,0,0,0,0,14.666c1.026,4.267,3.471,7.319,7.67,7.319h4.956V40.4A9.169,9.169,0,0,1,22.66,31.433Zm-.9-19.257A2.748,2.748,0,1,1,24.47,9.434a2.729,2.729,0,0,1-2.714,2.741Z" transform="translate(0 -2.25)" fill="#0a0094"/>
</svg>
