<svg xmlns="http://www.w3.org/2000/svg" width="59.1" height="56.55" viewBox="0 0 59.1 56.55">
  <path id="Icon_simple-adobephotoshop" data-name="Icon simple-adobephotoshop" d="M0,.45V57H59.1V.45ZM2.462,2.867H56.637V54.583H2.462Zm11.82,10.827c0-.162.345-.28.552-.28,1.586-.08,3.91-.121,6.348-.121,6.826,0,9.481,3.673,9.481,8.376,0,6.138-4.536,8.773-10.1,8.773-.936,0-1.256-.041-1.908-.041v9.285c0,.2-.081.28-.283.28h-3.8c-.2,0-.283-.073-.283-.273v-26Zm4.371,12.837c.566.039,1.015.039,1.995.039,2.881,0,5.59-1,5.59-4.824,0-3.069-1.936-4.626-5.225-4.626-.975,0-1.908.039-2.357.08v9.338ZM39.848,23.66c-1.95,0-2.6.957-2.6,1.755,0,.877.443,1.474,3.046,2.791,3.861,1.837,5.078,3.589,5.078,6.179,0,3.867-3,5.945-7.067,5.945a10.929,10.929,0,0,1-5.048-1.039c-.16-.08-.2-.2-.2-.4V35.347c0-.242.118-.321.281-.2a9.2,9.2,0,0,0,4.955,1.436c1.95,0,2.763-.8,2.763-1.875,0-.877-.566-1.636-3.046-2.912-3.5-1.643-4.959-3.311-4.959-6.107,0-3.11,2.477-5.7,6.784-5.7a11.673,11.673,0,0,1,4.418.677.524.524,0,0,1,.246.479v3.311c0,.2-.123.321-.369.242a8.951,8.951,0,0,0-4.292-1.039Z" transform="translate(0 -0.45)" fill="#fff"/>
</svg>
