<svg xmlns="http://www.w3.org/2000/svg" width="52.568" height="50.631" viewBox="0 0 52.568 50.631">
  <path id="Icon_simple-jquery" data-name="Icon simple-jquery" d="M3.357,12.568C-1.3,19.257-.722,27.956,2.837,35.06c.081.173.171.338.259.5a3.536,3.536,0,0,0,.169.327,1.851,1.851,0,0,0,.1.182c.057.114.118.224.178.333l.344.581c.064.107.125.213.2.32.121.206.263.41.388.616.057.086.11.171.173.257q.319.5.68.974c.171.235.342.463.526.691.059.083.125.167.186.25l.485.59c.059.068.118.147.182.217.215.259.443.511.671.765,0,0,.007.009.011.015a6.864,6.864,0,0,0,.93.965c.175.18.351.36.537.535l.221.213c.243.228.487.456.743.675,0,0,.007,0,.011.007l.125.11c.224.2.45.39.68.57l.274.23c.186.149.379.292.57.439l.3.228c.2.154.421.3.629.454.077.055.154.11.232.16l.064.05.616.406.263.175c.322.206.643.4.961.594.092.046.184.1.27.149.237.136.482.274.722.4.132.075.268.138.4.206.164.092.336.182.511.274a.71.71,0,0,1,.123.05c.072.033.14.068.211.1.263.132.537.257.822.382a1.786,1.786,0,0,1,.167.075c.316.138.632.27.958.4.075.022.154.059.23.088.3.112.6.226.9.333l.11.039c.336.114.667.224,1.007.329.079.022.16.05.243.072a10.664,10.664,0,0,0,1.037.3c22.5,4.1,29.04-13.529,29.04-13.529C45.807,44.316,36.059,46.2,26.826,44.1c-.342-.079-.684-.189-1.029-.289q-.626-.185-1.243-.4l-.136-.053c-.3-.1-.586-.213-.877-.325q-.119-.049-.241-.09c-.322-.129-.636-.263-.947-.4-.068-.022-.125-.053-.193-.079q-.4-.183-.792-.373c-.081-.035-.154-.072-.232-.114-.206-.1-.412-.206-.614-.311q-.208-.1-.41-.211c-.248-.132-.5-.274-.743-.41-.075-.053-.16-.1-.246-.145q-.485-.287-.961-.59-.132-.082-.259-.173-.349-.215-.684-.452c-.077-.05-.147-.105-.226-.16q-.327-.226-.645-.465c-.092-.075-.191-.145-.289-.219-.193-.151-.388-.3-.581-.456l-.259-.206q-.373-.3-.732-.616a.566.566,0,0,0-.081-.066l-.761-.693-.219-.206c-.18-.182-.364-.357-.548-.537l-.213-.219q-.348-.346-.678-.708l-.033-.035c-.232-.254-.458-.513-.686-.776-.059-.068-.114-.14-.175-.213l-.5-.607q-.379-.486-.746-.982C4.73,25.533,2.876,15.884,6.975,7.969M17.8,6.934c-3.375,4.844-3.184,11.323-.557,16.446a19.956,19.956,0,0,0,1.485,2.483,11.63,11.63,0,0,0,1.737,2.162c.235.268.489.526.754.787l.2.2q.375.362.768.713l.033.029q.444.387.908.75c.075.05.138.11.211.16.307.237.616.465.936.691l.033.02c.136.1.281.189.434.285.061.039.132.092.2.132.232.149.461.289.7.432.037.015.07.035.105.05.2.121.412.237.618.344.072.044.143.077.217.118.147.072.292.149.432.224l.07.031c.3.145.6.281.895.417.075.029.138.053.2.083.243.105.491.206.735.3.11.037.213.081.316.114.224.083.458.16.68.237l.307.1a7.423,7.423,0,0,0,.982.283c17.369,2.879,21.391-10.5,21.391-10.5-3.621,5.211-10.627,7.693-18.095,5.755q-.5-.128-.982-.285c-.105-.029-.2-.061-.3-.092-.228-.079-.463-.156-.684-.239l-.316-.118c-.246-.1-.5-.191-.735-.3-.075-.033-.143-.055-.2-.088-.307-.138-.616-.274-.914-.421L29.908,28l-.261-.132c-.2-.105-.388-.215-.581-.329a1.36,1.36,0,0,1-.136-.075c-.232-.145-.474-.285-.7-.434-.075-.042-.143-.092-.213-.136l-.456-.3c-.316-.219-.625-.456-.936-.684-.07-.064-.138-.116-.206-.173a20.852,20.852,0,0,1-7.1-10.105A15.7,15.7,0,0,1,20.548,3.044m9.4-.322a10.125,10.125,0,0,0-.811,9.77,13.787,13.787,0,0,0,7.9,7.38c.143.055.281.1.428.154l.193.059c.2.064.406.138.614.184,9.6,1.851,12.193-4.928,12.893-5.923-2.285,3.281-6.116,4.068-10.816,2.926a10.623,10.623,0,0,1-1.132-.351,13.912,13.912,0,0,1-1.353-.557A14.3,14.3,0,0,1,35.5,14.914C31.289,11.726,28.682,5.638,31.427.679" transform="translate(-0.016 -0.679)" fill="#fa0"/>
</svg>
