<svg xmlns="http://www.w3.org/2000/svg" width="59.1" height="56.55" viewBox="0 0 59.1 56.55">
  <path id="Icon_simple-adobexd" data-name="Icon simple-adobexd" d="M48.634.45H10.466A10.361,10.361,0,0,0,0,10.721V46.729A10.361,10.361,0,0,0,10.466,57H48.634A10.361,10.361,0,0,0,59.1,46.729V10.721A10.361,10.361,0,0,0,48.634.45Zm7.979,45.337A8.673,8.673,0,0,1,54.017,52,9.008,9.008,0,0,1,47.7,54.583H11.4a8.872,8.872,0,0,1-8.939-8.772V11.639A8.872,8.872,0,0,1,11.4,2.867H47.674a8.857,8.857,0,0,1,8.939,8.773ZM23.369,26.913l6.9,13c.123.193.049.387-.148.387H25.832a.484.484,0,0,1-.517-.314c-1.576-3.19-3.177-6.38-4.827-9.812h-.049c-1.478,3.238-3.1,6.646-4.679,9.836a.474.474,0,0,1-.443.266H11.254c-.246,0-.271-.193-.148-.338l6.747-12.615-6.526-12.76a.2.2,0,0,1,.148-.338h4.236c.246,0,.345.048.443.266,1.551,3.19,3.127,6.477,4.6,9.691h.049c1.428-3.19,3-6.5,4.531-9.667.123-.193.2-.314.443-.314h3.965c.2,0,.271.145.148.338Zm8.1,3.939c0-5.631,3.817-10.029,9.875-10.029a11.126,11.126,0,0,1,1.281.048v-6.4a.245.245,0,0,1,.246-.242h3.891c.2,0,.246.073.246.193V36.6a16.9,16.9,0,0,0,.123,2.368c0,.145-.049.193-.2.266a14.9,14.9,0,0,1-6.3,1.4C35.288,40.663,31.471,37.425,31.471,30.852Zm11.155-6.187a3.787,3.787,0,0,0-1.428-.242c-3.1,0-5.27,2.344-5.27,6.235,0,4.447,2.216,6.235,5,6.235a4.726,4.726,0,0,0,1.7-.266V24.665Z" transform="translate(0 -0.45)" fill="#fff"/>
</svg>
