<svg xmlns="http://www.w3.org/2000/svg" width="78.663" height="72" viewBox="0 0 78.663 72">
  <path id="Icon_simple-javascript" data-name="Icon simple-javascript" d="M0,0H78.663V72H0ZM72.219,54.828c-.574-3.285-2.911-6.045-9.843-8.619-2.412-1.035-5.093-1.755-5.89-3.42a3.259,3.259,0,0,1-.151-2.115c.492-1.938,3-2.52,4.966-1.98a5.192,5.192,0,0,1,3.2,2.7c3.389-2.028,3.389-2.028,5.752-3.375a12.567,12.567,0,0,0-1.921-2.34c-2.065-2.115-4.815-3.2-9.289-3.1l-2.311.267a10.8,10.8,0,0,0-5.6,3.015c-3.737,3.873-2.658,10.623,1.865,13.413,4.474,3.06,11.016,3.732,11.852,6.615.787,3.51-2.852,4.635-6.444,4.23-2.658-.54-4.13-1.758-5.752-4.008l-6,3.153a12.245,12.245,0,0,0,2.655,3.327c5.7,5.268,19.961,5,22.521-3.012a9.337,9.337,0,0,0,.243-4.95l.151.2ZM42.776,33.093H35.408c0,5.814-.029,11.592-.029,17.415,0,3.7.206,7.089-.452,8.133-1.082,2.067-3.868,1.8-5.133,1.44a6.063,6.063,0,0,1-2.72-2.565c-.206-.315-.361-.588-.416-.588L20.675,60.3a10.963,10.963,0,0,0,4.34,4.551,15.606,15.606,0,0,0,10.511,1.215,9.122,9.122,0,0,0,5.936-4.233c1.672-2.79,1.318-6.21,1.3-10.038.039-6.162,0-12.327,0-18.537l.013-.168Z" fill="#dfff00"/>
</svg>
