<svg xmlns="http://www.w3.org/2000/svg" width="77" height="57.756" viewBox="0 0 77 57.756">
  <path id="Icon_awesome-sass" data-name="Icon awesome-sass" d="M36.315,44.789C36.279,44.861,36.243,44.919,36.315,44.789ZM66.289,34.322a15.78,15.78,0,0,0-6.978,1.624,14.819,14.819,0,0,1-1.564-3.621,9.667,9.667,0,0,1-.132-3.044,25.634,25.634,0,0,1,.914-3.273c-.012-.132-.168-.794-1.72-.806s-2.888.3-3.043.71a14.778,14.778,0,0,0-.638,2.3c-.277,1.408-3.1,6.437-4.7,9.06a9.342,9.342,0,0,1-1.071-2.647,9.667,9.667,0,0,1-.132-3.044,25.634,25.634,0,0,1,.914-3.273c-.012-.132-.168-.794-1.719-.806s-2.888.3-3.044.71-.325,1.372-.638,2.3-4.077,9.3-5.063,11.478c-.505,1.107-.938,2-1.251,2.6-.048.1-.084.156-.108.2.036-.06.06-.12.06-.1-.265.517-.421.806-.421.806v.012c-.2.385-.433.734-.541.734a4.991,4.991,0,0,1,.036-2.394c.565-2.912,1.9-7.435,1.889-7.592-.012-.084.253-.866-.878-1.287a1.416,1.416,0,0,0-1.588.265c-.1,0-.168.241-.168.241s1.215-5.1-2.333-5.1c-2.214,0-5.294,2.43-6.807,4.632-.95.517-3.008,1.636-5.174,2.827-.83.457-1.684.926-2.491,1.372-.06-.06-.108-.12-.168-.18-4.306-4.6-12.256-7.844-11.92-14.017.12-2.25.9-8.157,15.288-15.328,11.791-5.871,21.217-4.259,22.84-.674,2.334,5.113-5.04,14.63-17.284,16-4.667.517-7.12-1.287-7.734-1.961-.638-.71-.734-.746-.975-.614-.4.217-.144.842,0,1.215a7.25,7.25,0,0,0,4.426,3.477c2.25.734,7.722,1.143,14.338-1.42,7.433-2.863,13.219-10.84,11.523-17.518C46.5,1.4,35.252-.822,24.613,2.956c-6.339,2.25-13.195,5.787-18.127,10.4C.628,18.837-.309,23.614.076,25.611,1.446,32.7,11.213,37.318,15.122,40.735c-.193.108-.373.2-.541.3-1.96.975-9.406,4.873-11.27,8.987-2.106,4.668.349,8.013,1.96,8.47,5.028,1.4,10.176-1.119,12.942-5.246s2.43-9.517,1.155-11.971c-.012-.036-.036-.06-.048-.1.505-.3,1.023-.6,1.54-.9,1-.59,1.972-1.131,2.826-1.6A18.688,18.688,0,0,0,22.675,43.8c-.217,2.647.878,6.076,2.3,7.423a2.525,2.525,0,0,0,1.852.6c1.66,0,2.406-1.372,3.235-3.008,1.023-2,1.925-4.319,1.925-4.319s-1.131,6.28,1.961,6.28c1.13,0,2.261-1.456,2.767-2.2v.012s.024-.048.084-.144c.12-.18.18-.289.18-.289v-.036c.457-.782,1.456-2.575,2.959-5.534,1.949-3.826,3.813-8.6,3.813-8.6a24.214,24.214,0,0,0,.746,3.1A29.062,29.062,0,0,0,46.108,40.7c-.457.626-.734.987-.734.987a.037.037,0,0,0,.012.024c-.361.481-.77,1-1.191,1.5a42.467,42.467,0,0,0-3.609,4.524,1.229,1.229,0,0,0,.337,1.648,2.925,2.925,0,0,0,1.888.3,8.343,8.343,0,0,0,2.827-.65,9.89,9.89,0,0,0,2.429-1.275A5.432,5.432,0,0,0,50.4,42.973a9.964,9.964,0,0,0-.878-3.393c.132-.193.277-.4.409-.6a63.959,63.959,0,0,0,4.222-7.293,24.212,24.212,0,0,0,.746,3.1,21.223,21.223,0,0,0,1.37,3.092,13.225,13.225,0,0,0-4.1,5.306c-.89,2.563-.193,3.718,1.119,3.982a4.037,4.037,0,0,0,2.057-.421,9.56,9.56,0,0,0,2.6-1.335c1.5-1.107,2.959-2.659,2.862-4.764a8.951,8.951,0,0,0-.65-2.815,14.686,14.686,0,0,1,7.47-.866c6.7.782,8.011,4.969,7.758,6.714a4.448,4.448,0,0,1-2.13,3.008c-.469.289-.614.4-.578.614.06.313.277.3.674.229a5.227,5.227,0,0,0,3.644-4.656c.193-4.091-3.741-8.59-10.708-8.554ZM14.653,51.731C12.44,54.15,9.336,55.064,8,54.294c-1.432-.833-.866-4.391,1.864-6.969a35.648,35.648,0,0,1,5.22-3.9c.325-.193.794-.481,1.372-.83.1-.06.144-.084.144-.084.108-.072.229-.132.349-.2a9.6,9.6,0,0,1-2.3,9.421Zm16.165-11c-.77,1.889-2.393,6.7-3.38,6.449-.842-.217-1.36-3.886-.168-7.5a16.594,16.594,0,0,1,2.635-4.825c1.214-1.36,2.549-1.793,2.862-1.251C33.189,34.322,31.3,39.556,30.818,40.735Zm13.355,6.377c-.325.168-.626.277-.77.193-.108-.06.132-.289.132-.289s1.672-1.793,2.334-2.611c.385-.481.83-1.047,1.31-1.672,0,.06.012.12.012.193-.016,2.154-2.084,3.609-3.022,4.187Zm10.3-2.346c-.241-.168-.2-.734.6-2.491a9.351,9.351,0,0,1,2.286-2.948,4.353,4.353,0,0,1,.229,1.3,4.242,4.242,0,0,1-3.115,4.139Z" transform="translate(0 -1.125)" fill="#d700ff"/>
</svg>
